	<svg xmlns="http://www.w3.org/2000/svg" version="1.1" height='435' width='1400'>
	
<g>
		<ellipse cx="1000" cy="200" rx="70" ry="50" style="fill:black" stroke="black" stroke-width="1" />
		<path d="M 990,162 990,150 1010,150 1010,162 990,162" fill="none" stroke="black" stroke-width="3"></path>
		<ellipse cx="993" cy="200" rx="45" ry="26" style="fill:grey" stroke="black" stroke-width="1"/>
		<!-- <path d="M940,140a60,7 0 1,0 120,0a60,7 0 1,0 -120,0" fill="none" stroke="black" stroke-width="5"></path> -->
		<ellipse cx="1000" cy="140" rx="60" ry="7" style="fill:none" stroke="black" stroke-width="5"/>
		
		<circle cx="940" cy="140" r="4" style="fill:red"/>
		<circle cx="1060" cy="140" r="4" style="fill:green"/>
		<circle cx="1000" cy="132.5" r="4" style="fill:yellow"/>
		<circle cx="1000" cy="147.5" r="4" style="fill:blue"/>


		<path d="M 1050,165 1170,175" fill="none" stroke="black" stroke-width="3"></path>
		<path d="M 1058,227 Q 1110,205 1170,200" fill="none" stroke="black" stroke-width="3"></path>
		<g>
			<circle cx="1197" cy="190" r="30" style="fill:none" stroke="black" stroke-width="3"></circle>
			<circle cx="1197" cy="190" r="10" style="fill:none" stroke="black" stroke-width="4"></circle>

			<circle cx="1216" cy="190" r="8" style="fill:red" stroke="black" stroke-width="2"></circle>
			<circle cx="1178" cy="190" r="8" style="fill:green" stroke="black" stroke-width="2"></circle>
			<circle cx="1197" cy="209" r="8" style="fill:red" stroke="black" stroke-width="2"></circle>
			<circle cx="1197" cy="171" r="8" style="fill:green" stroke="black" stroke-width="2"></circle>
			<animateTransform attributeName="transform"
                          attributeType="XML"
                          type="rotate"
                          from="0 1197 190"
                          to="360 1197 190"
                          dur="0.01s"
                          repeatCount="indefinite"/>
		</g>
		<path d="M 980,247 980,260" fill="none" stroke="black" stroke-width="3"></path>
		<path d="M 1020,247 1020,260" fill="none" stroke="black" stroke-width="4"></path>
		<path d="M 950,270 Q 980,260,1000,260 1020,260 1050,270" fill="none" stroke="black" stroke-width="4"></path>
		<animateMotion 
						path="M 560,-100 160,-100 150,-90 140,-80 -32,68 -32.2,68 -32,68 -32.2,67.5 -32,68 -32.2,68 -32,68 -32.2,67.5 -32,68 -32.2,68 -32,68 -32.2,67.5 -32,68 -32.2,68 -32,68 -32.2,67.5 -32,68 -32.2,68 -32,68 -32.2,67.5 -32,68 -32.2,68 -32,68 -32.2,67.5 -32,68 -32.2,68 -32,68 -32.2,67.5 -32,68 -32.2,68 -32,68 -32.2,67.5 -32,68 -32.2,68 -32,68 -32.2,67.5 -32,68 -32.2,68 -32,68 -32.2,67.5 -32,68 -32.2,68 -32,68 -32.2,67.5  -30,-55 -60,-60 -80,-80 -130,-90 -140,-90 -300,-110  -1000,-130"
                        dur="10s"
                        repeatCount="indefinite"/>
	</g>



	<g>
		<path d="M 620 179 570 260 100 260 30 170" stroke="none" stroke-width="3" fill="grey"></path>
		<circle cx="200" cy="220" r="10" stroke="black" stroke-width="3" fill="darkgrey" />
		<circle cx="280" cy="220" r="10" stroke="black" stroke-width="3" fill="darkgrey" />
		<circle cx="360" cy="220" r="10" stroke="black" stroke-width="3" fill="darkgrey" />
		<path d="M 400 180 400 60 375 60 375 80 350 80 350 110 300 110 150 175" stroke="black" stroke-width="1" fill="darkgrey"></path>
		<g>
			<circle cx="387" cy="65" r="12" fill="black" />
			<path d="M 375 65 320 50" stroke="black" stroke-width="10"></path>
			<circle cx="387" cy="65" r="4"  fill="red">
				<animateMotion 
						path="M 0,0 -1000,-200"
                        dur="1s"
                        repeatCount="indefinite"/>
			</circle>
			<animateTransform attributeName="transform"
                          attributeType="XML"
                          type="rotate"
                          from="0 387 65"
                          to="-15 387 65"
                          dur="1s"
                          repeatCount="indefinite"/>
		</g>
		<animateMotion
	              path="M 500,179 500,160 490,179 490,160 475,179 475,160 460,179 460,160 445,179 445,160 430,179 445,160 445,179 460,160 460,179 475,160 475,179 490,160 490,179 500,160 500,179"
	              begin="0s" dur="40s" repeatCount="indefinite"
	              />
	</g>

	</svg> 
